<svg xmlns="http://www.w3.org/2000/svg" viewBox="0 0 864.55 898.37"><defs><style>.cls-1,.cls-2{fill:#ff5d5d;}.cls-1,.cls-2,.cls-3,.cls-4{stroke:#ff5d5d;stroke-miterlimit:10;}.cls-1{stroke-width:2px;}.cls-2,.cls-3{stroke-width:6px;}.cls-3,.cls-4{fill:none;}.cls-4{stroke-width:4px;}</style></defs><g id="Camada_1" data-name="Camada 1"><path class="cls-1" d="M1219,481a12,12,0,0,1,12,12V783a12,12,0,0,1-12,12H702a12,12,0,0,1-12-12V493a12,12,0,0,1,12-12h517m0-6H702a18.05,18.05,0,0,0-18,18V783a18.05,18.05,0,0,0,18,18h517a18.05,18.05,0,0,0,18-18V493a18.05,18.05,0,0,0-18-18Z" transform="translate(-509.97 1.02)"/><line class="cls-2" x1="180.03" y1="737.63" x2="721.03" y2="737.63"/><line class="cls-2" x1="406.32" y1="476.02" x2="406.32" y2="737.63"/><circle class="cls-2" cx="421.53" cy="493.52" r="4.5"/><circle class="cls-2" cx="440.53" cy="493.52" r="4.5"/><circle class="cls-2" cx="460.53" cy="493.52" r="4.5"/><rect class="cls-3" x="190.03" y="504.02" width="96" height="208" rx="18"/><rect class="cls-3" x="299.03" y="614.02" width="97" height="97" rx="18"/><rect class="cls-3" x="299.03" y="505.02" width="97" height="97" rx="18"/><rect class="cls-3" x="569.03" y="602.02" width="137" height="122" rx="18"/><circle class="cls-2" cx="583.53" cy="615.52" r="2.5"/><circle class="cls-2" cx="596.53" cy="615.52" r="2.5"/><circle class="cls-2" cx="609.53" cy="615.52" r="2.5"/><path class="cls-4" d="M1092,635l10.16,6.46a.72.72,0,0,1,.09,1.2l-8.75,7.79" transform="translate(-509.97 1.02)"/><line class="cls-4" x1="596.53" y1="651.47" x2="609.53" y2="651.47"/><path class="cls-3" d="M981,795" transform="translate(-509.97 1.02)"/><polyline class="cls-3" points="407.95 799.93 353.53 848.64 525.24 848.64 474.79 799.66"/><line class="cls-3" x1="675.17" y1="848.64" x2="599.03" y2="848.64"/><path class="cls-3" d="M1109,847.63H522.54c-21.54,22.37,0,46.73,0,46.73h837.39c26.07-21.36,0-46.73,0-46.73H1185.14" transform="translate(-509.97 1.02)"/><path class="cls-4" d="M331.54,492.5" transform="translate(-509.97 1.02)"/></g><g id="Camada_2" data-name="Camada 2"><path class="cls-3" d="M957.92,264.69" transform="translate(-509.97 1.02)"/><line class="cls-3" x1="446.5" y1="0.02" x2="447.7" y2="218.79"/><path class="cls-3" d="M1028.1,272.15c0-30-31.14-54.38-69.55-54.38S889,242.12,889,272.15Z" transform="translate(-509.97 1.02)"/><path class="cls-2" d="M984.84,270.58C983,277,971.64,282,957.92,282S933,277.1,931,270.72" transform="translate(-509.97 1.02)"/><path class="cls-3" d="M1110.63,849.34A13.44,13.44,0,0,1,1109,843c0-12.15,17.24-22,38.5-22s38.5,9.85,38.5,22a13.12,13.12,0,0,1-.78,4.43" transform="translate(-509.97 1.02)"/></g></svg>